<?xml version="1.0" encoding="UTF-8"?>
<svg xmlns="http://www.w3.org/2000/svg" xmlns:xlink="http://www.w3.org/1999/xlink" xmlns:svgjs="http://svgjs.com/svgjs" version="1.1" width="512" height="512" x="0" y="0" viewBox="0 0 469.333 469.333" style="enable-background:new 0 0 512 512" xml:space="preserve" class=""><circle r="234.6665" cx="234.6665" cy="234.6665" fill="#6c4796" shape="circle"/><g transform="matrix(0.5,0,0,0.5,117.33349609375,117.33349609375)">
<g xmlns="http://www.w3.org/2000/svg">
	<g>
		<g>
			<path d="M426.667,0h-384C19.135,0,0,19.135,0,42.667v64c0,23.531,19.135,42.667,42.667,42.667h384     c23.531,0,42.667-19.135,42.667-42.667v-64C469.333,19.135,450.198,0,426.667,0z M85.333,96c0,5.896-4.771,10.667-10.667,10.667     S64,101.896,64,96V53.333c0-5.896,4.771-10.667,10.667-10.667s10.667,4.771,10.667,10.667V96z M128,96     c0,5.896-4.771,10.667-10.667,10.667c-5.896,0-10.667-4.771-10.667-10.667V53.333c0-5.896,4.771-10.667,10.667-10.667     c5.896,0,10.667,4.771,10.667,10.667V96z M170.667,96c0,5.896-4.771,10.667-10.667,10.667c-5.896,0-10.667-4.771-10.667-10.667     V53.333c0-5.896,4.771-10.667,10.667-10.667c5.896,0,10.667,4.771,10.667,10.667V96z M320,96     c-11.76,0-21.333-9.573-21.333-21.333S308.24,53.333,320,53.333c11.76,0,21.333,9.573,21.333,21.333S331.76,96,320,96z M384,96     c-11.76,0-21.333-9.573-21.333-21.333S372.24,53.333,384,53.333c11.76,0,21.333,9.573,21.333,21.333S395.76,96,384,96z" fill="#ffffff" data-original="#000000"/>
			<path d="M426.667,160h-384C19.135,160,0,179.135,0,202.667v64c0,23.531,19.135,42.667,42.667,42.667h384     c23.531,0,42.667-19.135,42.667-42.667v-64C469.333,179.135,450.198,160,426.667,160z M85.333,256     c0,5.896-4.771,10.667-10.667,10.667S64,261.896,64,256v-42.667c0-5.896,4.771-10.667,10.667-10.667s10.667,4.771,10.667,10.667     V256z M128,256c0,5.896-4.771,10.667-10.667,10.667c-5.896,0-10.667-4.771-10.667-10.667v-42.667     c0-5.896,4.771-10.667,10.667-10.667c5.896,0,10.667,4.771,10.667,10.667V256z M170.667,256c0,5.896-4.771,10.667-10.667,10.667     c-5.896,0-10.667-4.771-10.667-10.667v-42.667c0-5.896,4.771-10.667,10.667-10.667c5.896,0,10.667,4.771,10.667,10.667V256z      M320,256c-11.76,0-21.333-9.573-21.333-21.333s9.573-21.333,21.333-21.333c11.76,0,21.333,9.573,21.333,21.333     S331.76,256,320,256z M384,256c-11.76,0-21.333-9.573-21.333-21.333s9.573-21.333,21.333-21.333     c11.76,0,21.333,9.573,21.333,21.333S395.76,256,384,256z" fill="#ffffff" data-original="#000000"/>
			<path d="M426.667,320h-384C19.135,320,0,339.135,0,362.667v64c0,23.531,19.135,42.667,42.667,42.667h384     c23.531,0,42.667-19.135,42.667-42.667v-64C469.333,339.135,450.198,320,426.667,320z M85.333,416     c0,5.896-4.771,10.667-10.667,10.667S64,421.896,64,416v-42.667c0-5.896,4.771-10.667,10.667-10.667s10.667,4.771,10.667,10.667     V416z M128,416c0,5.896-4.771,10.667-10.667,10.667c-5.896,0-10.667-4.771-10.667-10.667v-42.667     c0-5.896,4.771-10.667,10.667-10.667c5.896,0,10.667,4.771,10.667,10.667V416z M170.667,416c0,5.896-4.771,10.667-10.667,10.667     c-5.896,0-10.667-4.771-10.667-10.667v-42.667c0-5.896,4.771-10.667,10.667-10.667c5.896,0,10.667,4.771,10.667,10.667V416z      M320,416c-11.76,0-21.333-9.573-21.333-21.333c0-11.76,9.573-21.333,21.333-21.333c11.76,0,21.333,9.573,21.333,21.333     C341.333,406.427,331.76,416,320,416z M384,416c-11.76,0-21.333-9.573-21.333-21.333c0-11.76,9.573-21.333,21.333-21.333     c11.76,0,21.333,9.573,21.333,21.333C405.333,406.427,395.76,416,384,416z" fill="#ffffff" data-original="#000000"/>
		</g>
	</g>
</g>
<g xmlns="http://www.w3.org/2000/svg">
</g>
<g xmlns="http://www.w3.org/2000/svg">
</g>
<g xmlns="http://www.w3.org/2000/svg">
</g>
<g xmlns="http://www.w3.org/2000/svg">
</g>
<g xmlns="http://www.w3.org/2000/svg">
</g>
<g xmlns="http://www.w3.org/2000/svg">
</g>
<g xmlns="http://www.w3.org/2000/svg">
</g>
<g xmlns="http://www.w3.org/2000/svg">
</g>
<g xmlns="http://www.w3.org/2000/svg">
</g>
<g xmlns="http://www.w3.org/2000/svg">
</g>
<g xmlns="http://www.w3.org/2000/svg">
</g>
<g xmlns="http://www.w3.org/2000/svg">
</g>
<g xmlns="http://www.w3.org/2000/svg">
</g>
<g xmlns="http://www.w3.org/2000/svg">
</g>
<g xmlns="http://www.w3.org/2000/svg">
</g>
</g></svg>