<svg xmlns="http://www.w3.org/2000/svg" width="512" height="512" viewBox="0 0 469.333 469.333" style="enable-background:new 0 0 512 512" xml:space="preserve"><circle r="234.667" cx="234.667" cy="234.667" fill="#6c4796"/><g fill="#fff" xmlns="http://www.w3.org/2000/svg"><path d="M330.667 117.333h-192c-11.766 0-21.334 9.568-21.334 21.334v32c0 11.765 9.568 21.333 21.334 21.333h192c11.765 0 21.333-9.567 21.333-21.333v-32c0-11.766-9.568-21.334-21.333-21.334zm-170.667 48c0 2.948-2.386 5.334-5.334 5.334s-5.333-2.386-5.333-5.334V144c0-2.948 2.386-5.334 5.334-5.334S160 141.052 160 144v21.333zm21.333 0a5.33 5.33 0 0 1-5.333 5.334 5.33 5.33 0 0 1-5.334-5.334V144a5.33 5.33 0 0 1 5.334-5.334 5.33 5.33 0 0 1 5.333 5.334v21.333zm21.334 0a5.33 5.33 0 0 1-5.334 5.334 5.33 5.33 0 0 1-5.333-5.334V144a5.33 5.33 0 0 1 5.333-5.334 5.33 5.33 0 0 1 5.334 5.334v21.333zm74.666 0c-5.88 0-10.666-4.786-10.666-10.666S271.453 144 277.333 144c5.88 0 10.667 4.786 10.667 10.666s-4.787 10.667-10.667 10.667zm32 0c-5.88 0-10.666-4.786-10.666-10.666S303.453 144 309.333 144c5.88 0 10.667 4.786 10.667 10.666s-4.787 10.667-10.667 10.667zM330.667 197.333h-192c-11.766 0-21.334 9.568-21.334 21.334v32c0 11.765 9.568 21.333 21.334 21.333h192c11.765 0 21.333-9.567 21.333-21.333v-32c0-11.766-9.568-21.334-21.333-21.334zm-170.667 48c0 2.948-2.386 5.334-5.334 5.334s-5.333-2.386-5.333-5.334V224c0-2.948 2.386-5.334 5.334-5.334S160 221.052 160 224v21.333zm21.333 0a5.33 5.33 0 0 1-5.333 5.334 5.33 5.33 0 0 1-5.334-5.334V224a5.33 5.33 0 0 1 5.334-5.334 5.33 5.33 0 0 1 5.333 5.334v21.333zm21.334 0a5.33 5.33 0 0 1-5.334 5.334 5.33 5.33 0 0 1-5.333-5.334V224a5.33 5.33 0 0 1 5.333-5.334 5.33 5.33 0 0 1 5.334 5.334v21.333zm74.666 0c-5.88 0-10.666-4.786-10.666-10.666S271.453 224 277.333 224c5.88 0 10.667 4.787 10.667 10.667s-4.787 10.666-10.667 10.666zm32 0c-5.88 0-10.666-4.786-10.666-10.666S303.453 224 309.333 224c5.88 0 10.667 4.787 10.667 10.667s-4.787 10.666-10.667 10.666zM330.667 277.333h-192c-11.766 0-21.334 9.568-21.334 21.334v32c0 11.765 9.568 21.333 21.334 21.333h192c11.765 0 21.333-9.567 21.333-21.333v-32c0-11.766-9.568-21.334-21.333-21.334zm-170.667 48c0 2.948-2.386 5.334-5.334 5.334s-5.333-2.386-5.333-5.334V304c0-2.948 2.386-5.334 5.334-5.334S160 301.052 160 304v21.333zm21.333 0a5.33 5.33 0 0 1-5.333 5.334 5.33 5.33 0 0 1-5.334-5.334V304a5.33 5.33 0 0 1 5.334-5.334 5.33 5.33 0 0 1 5.333 5.334v21.333zm21.334 0a5.33 5.33 0 0 1-5.334 5.334 5.33 5.33 0 0 1-5.333-5.334V304a5.33 5.33 0 0 1 5.333-5.334 5.33 5.33 0 0 1 5.334 5.334v21.333zm74.666 0c-5.88 0-10.666-4.786-10.666-10.666 0-5.88 4.786-10.667 10.666-10.667 5.88 0 10.667 4.787 10.667 10.667s-4.787 10.666-10.667 10.666zm32 0c-5.88 0-10.666-4.786-10.666-10.666 0-5.88 4.786-10.667 10.666-10.667 5.88 0 10.667 4.787 10.667 10.667s-4.787 10.666-10.667 10.666z" data-original="#000000"/></g></svg>