<svg width="32" height="32" fill="none" xmlns="http://www.w3.org/2000/svg"><path d="M26.127 22.084c.948-.066 1.664.956 1.034 1.666a13.214 13.214 0 0 1-9.913 4.46C9.93 28.21 4 22.279 4 14.962 4 9.77 6.987 5.276 11.336 3.104c.85-.425 1.649.533 1.338 1.43a13.23 13.23 0 0 0-.726 4.335c0 7.316 5.932 13.247 13.248 13.247.313 0 .624-.01.931-.032Z" fill="#fff"/><path d="M17.514 6.943a.569.569 0 0 0 .268-.256l.71-1.378a.577.577 0 0 1 1.037.03l.582 1.318c.058.13.164.235.297.292l1.247.534a.56.56 0 0 1 0 1.034l-1.247.534a.569.569 0 0 0-.297.292l-.582 1.318a.577.577 0 0 1-1.036.03l-.711-1.378a.57.57 0 0 0-.268-.256l-1.184-.546a.56.56 0 0 1 0-1.022l1.184-.546ZM21.01 14.295a.38.38 0 0 0 .178-.17l.474-.92a.385.385 0 0 1 .69.021l.389.879a.38.38 0 0 0 .198.194l.831.356a.374.374 0 0 1 0 .69l-.831.356a.38.38 0 0 0-.198.194l-.388.879a.385.385 0 0 1-.691.02l-.474-.919a.38.38 0 0 0-.179-.17l-.79-.365a.373.373 0 0 1 0-.68l.79-.365ZM26.505 10.648a.19.19 0 0 0 .089-.085l.237-.46a.192.192 0 0 1 .345.01l.195.44a.19.19 0 0 0 .099.097l.415.178a.187.187 0 0 1 0 .344l-.416.178a.189.189 0 0 0-.099.098l-.194.439a.192.192 0 0 1-.345.01l-.237-.46a.19.19 0 0 0-.09-.085l-.394-.182a.187.187 0 0 1 0-.34l.395-.182Z" fill="#fff"/></svg>