<svg width="64" height="64" fill="none" xmlns="http://www.w3.org/2000/svg"><path d="m41.885 57.885-3.77-3.77 16-16 3.77 3.773-16 15.997Zm-19.77-51.77 3.77 3.77-16 16-3.77-3.773 16-15.997ZM24 42.667a2.667 2.667 0 1 0 0-5.334 2.667 2.667 0 0 0 0 5.334Z" fill="#6B4695"/><path d="M41.427 7.488c-2.016-2.016-5.526-2.016-7.542 0L7.488 33.885a5.336 5.336 0 0 0 0 7.542l15.085 15.085a5.297 5.297 0 0 0 3.771 1.563 5.297 5.297 0 0 0 3.77-1.563l26.398-26.397a5.297 5.297 0 0 0 1.563-3.771 5.297 5.297 0 0 0-1.563-3.77L41.427 7.487ZM26.344 52.741 11.259 37.656l26.397-26.397 15.085 15.085-26.397 26.397Z" fill="#6B4695"/></svg>