<svg width="26" height="26" fill="none" xmlns="http://www.w3.org/2000/svg"><path d="M13.5 19a6.5 6.5 0 1 0 0-13 6.5 6.5 0 0 0 0 13ZM13 21.667a1.083 1.083 0 0 0-1.083 1.083v2.167a1.083 1.083 0 1 0 2.166 0V22.75A1.083 1.083 0 0 0 13 21.667Zm0-17.334a1.083 1.083 0 0 0 1.083-1.083V1.083a1.083 1.083 0 1 0-2.166 0V3.25A1.083 1.083 0 0 0 13 4.333ZM4.333 13a1.083 1.083 0 0 0-1.083-1.083H1.083a1.083 1.083 0 1 0 0 2.166H3.25A1.083 1.083 0 0 0 4.333 13Zm20.584-1.083H22.75a1.083 1.083 0 1 0 0 2.166h2.167a1.083 1.083 0 1 0 0-2.166Zm-4.257 7.211a1.083 1.083 0 0 0-1.532 1.532l1.532 1.532a1.096 1.096 0 0 0 1.532 0 1.083 1.083 0 0 0 0-1.532l-1.532-1.532ZM5.34 6.872a1.095 1.095 0 0 0 1.532 0 1.083 1.083 0 0 0 0-1.532L5.34 3.808A1.083 1.083 0 0 0 3.808 5.34L5.34 6.872Zm0 12.256L3.808 20.66a1.084 1.084 0 0 0 0 1.532 1.095 1.095 0 0 0 1.532 0l1.532-1.532a1.083 1.083 0 0 0-1.532-1.532ZM19.894 7.176a1.077 1.077 0 0 0 .766-.304l1.532-1.532a1.083 1.083 0 0 0-1.532-1.532L19.128 5.34a1.07 1.07 0 0 0 .766 1.836Z" fill="#fff"/></svg>