<svg width="26" height="26" viewBox="0 0 26 26" fill="none" xmlns="http://www.w3.org/2000/svg">
<path d="M13.5 19C17.0899 19 20 16.0899 20 12.5C20 8.91015 17.0899 6 13.5 6C9.91015 6 7 8.91015 7 12.5C7 16.0899 9.91015 19 13.5 19Z" fill="white"/>
<path d="M13 21.6667C12.7127 21.6667 12.4371 21.7808 12.234 21.984C12.0308 22.1871 11.9167 22.4627 11.9167 22.75V24.9167C11.9167 25.204 12.0308 25.4795 12.234 25.6827C12.4371 25.8859 12.7127 26 13 26C13.2873 26 13.5629 25.8859 13.766 25.6827C13.9692 25.4795 14.0833 25.204 14.0833 24.9167V22.75C14.0833 22.4627 13.9692 22.1871 13.766 21.984C13.5629 21.7808 13.2873 21.6667 13 21.6667ZM13 4.33333C13.2873 4.33333 13.5629 4.2192 13.766 4.01603C13.9692 3.81287 14.0833 3.53732 14.0833 3.25V1.08333C14.0833 0.796016 13.9692 0.520465 13.766 0.317301C13.5629 0.114137 13.2873 0 13 0C12.7127 0 12.4371 0.114137 12.234 0.317301C12.0308 0.520465 11.9167 0.796016 11.9167 1.08333V3.25C11.9167 3.53732 12.0308 3.81287 12.234 4.01603C12.4371 4.2192 12.7127 4.33333 13 4.33333ZM4.33333 13C4.33333 12.7127 4.2192 12.4371 4.01603 12.234C3.81287 12.0308 3.53732 11.9167 3.25 11.9167H1.08333C0.796016 11.9167 0.520465 12.0308 0.317301 12.234C0.114137 12.4371 0 12.7127 0 13C0 13.2873 0.114137 13.5629 0.317301 13.766C0.520465 13.9692 0.796016 14.0833 1.08333 14.0833H3.25C3.53732 14.0833 3.81287 13.9692 4.01603 13.766C4.2192 13.5629 4.33333 13.2873 4.33333 13ZM24.9167 11.9167H22.75C22.4627 11.9167 22.1871 12.0308 21.984 12.234C21.7808 12.4371 21.6667 12.7127 21.6667 13C21.6667 13.2873 21.7808 13.5629 21.984 13.766C22.1871 13.9692 22.4627 14.0833 22.75 14.0833H24.9167C25.204 14.0833 25.4795 13.9692 25.6827 13.766C25.8859 13.5629 26 13.2873 26 13C26 12.7127 25.8859 12.4371 25.6827 12.234C25.4795 12.0308 25.204 11.9167 24.9167 11.9167ZM20.6602 19.1284C20.4559 18.9311 20.1823 18.8219 19.8982 18.8244C19.6142 18.8268 19.3425 18.9408 19.1416 19.1416C18.9408 19.3425 18.8268 19.6142 18.8244 19.8982C18.8219 20.1823 18.9311 20.4559 19.1284 20.6602L20.6602 22.1921C20.865 22.3921 21.1399 22.504 21.4262 22.504C21.7124 22.504 21.9873 22.3921 22.1921 22.1921C22.3952 21.9889 22.5093 21.7134 22.5093 21.4262C22.5093 21.1389 22.3952 20.8634 22.1921 20.6602L20.6602 19.1284ZM5.33975 6.87158C5.54442 7.07181 5.81935 7.18393 6.10567 7.18393C6.39198 7.18393 6.66692 7.07181 6.87158 6.87158C7.07468 6.66843 7.18877 6.39293 7.18877 6.10567C7.18877 5.81841 7.07468 5.5429 6.87158 5.33975L5.33975 3.80792C5.13543 3.61058 4.86178 3.50138 4.57773 3.50385C4.29369 3.50632 4.02197 3.62025 3.82111 3.82111C3.62025 4.02197 3.50632 4.29369 3.50385 4.57773C3.50138 4.86178 3.61058 5.13543 3.80792 5.33975L5.33975 6.87158ZM5.33975 19.1284L3.80792 20.6602C3.60482 20.8634 3.49073 21.1389 3.49073 21.4262C3.49073 21.7134 3.60482 21.9889 3.80792 22.1921C4.01258 22.3923 4.28752 22.5044 4.57383 22.5044C4.86015 22.5044 5.13508 22.3923 5.33975 22.1921L6.87158 20.6602C7.06892 20.4559 7.17812 20.1823 7.17565 19.8982C7.17318 19.6142 7.05925 19.3425 6.85839 19.1416C6.65753 18.9408 6.38581 18.8268 6.10177 18.8244C5.81772 18.8219 5.54407 18.9311 5.33975 19.1284ZM19.8943 7.176C20.0357 7.17804 20.1762 7.1522 20.3076 7.09997C20.439 7.04774 20.5588 6.97013 20.6602 6.87158L22.1921 5.33975C22.3894 5.13543 22.4986 4.86178 22.4961 4.57773C22.4937 4.29369 22.3797 4.02197 22.1789 3.82111C21.978 3.62025 21.7063 3.50632 21.4223 3.50385C21.1382 3.50138 20.8646 3.61058 20.6602 3.80792L19.1284 5.33975C18.975 5.48947 18.87 5.68181 18.8272 5.89187C18.7843 6.10192 18.8055 6.32 18.8881 6.51786C18.9706 6.71572 19.1106 6.88424 19.2901 7.00159C19.4695 7.11893 19.68 7.17969 19.8943 7.176Z" fill="white"/>
</svg>
