<?xml version="1.0" encoding="utf-8"?>
<!-- Generator: Adobe Illustrator 18.1.1, SVG Export Plug-In . SVG Version: 6.00 Build 0)  -->
<svg version="1.1" id="Capa_1" xmlns="http://www.w3.org/2000/svg" xmlns:xlink="http://www.w3.org/1999/xlink" x="0px" y="0px"
	 width="1026px" height="376px" viewBox="-9 118 1026 376" enable-background="new -9 118 1026 376" xml:space="preserve">
<g>
	<g>
		<g>
			<g>
				<defs>
					<path id="SVGID_1_" d="M31.7,135.2c-30.7,5.5-32.8,19.7-31.2,27.7c16.6,91.2,164.3,303.9,171.4,313c2,3,6,4,9.6,3.5
						c0.5,0,0.5,0,1,0c4-1,6.6-4.5,7.1-8.6c0-2,34.3-198.1,97.3-285.8c3-4,3-9.6,0-13.6c-9.6-14.6-73.1-25.7-109.9-30.7
						c-16.6-2.5-63-8.1-103.8-8.1C58.4,132.1,43.8,132.6,31.7,135.2"/>
				</defs>
				<clipPath id="SVGID_2_">
					<use xlink:href="#SVGID_1_"  overflow="visible"/>
				</clipPath>
				
					<linearGradient id="SVGID_3_" gradientUnits="userSpaceOnUse" x1="-787.1119" y1="437.7943" x2="-786.3768" y2="437.7943" gradientTransform="matrix(100.798 584.6294 584.6294 -100.798 -176500.9844 504388.5)">
					<stop  offset="0" style="stop-color:#D41F2C"/>
					<stop  offset="0.7854" style="stop-color:#951B1E"/>
					<stop  offset="1" style="stop-color:#6E1715"/>
					<stop  offset="1" style="stop-color:#7D1B1A"/>
					<stop  offset="1" style="stop-color:#931F1F"/>
					<stop  offset="1" style="stop-color:#A62022"/>
					<stop  offset="1" style="stop-color:#B52124"/>
					<stop  offset="1" style="stop-color:#C02126"/>
					<stop  offset="1" style="stop-color:#C62126"/>
					<stop  offset="1" style="stop-color:#C82127"/>
				</linearGradient>
				<polygon clip-path="url(#SVGID_2_)" fill="url(#SVGID_3_)" points="281.2,83.3 348.2,469.8 7,528.8 -59.5,141.7 				"/>
			</g>
		</g>
	</g>
	<path fill="#FFFFFF" d="M339.1,313.1c0.5-2.5,1-5.5,2.5-8.1c1.5-2.5,3-5,5-6.6c8.6,5.5,17.1,8.1,24.7,8.1c3.5,0,6-1,7.6-2.5
		c1.5-1.5,2.5-3.5,2.5-5.5c0-4-2.5-7.1-7.6-9.1l-14.6-6c-5.5-2.5-10.1-5.5-13.1-9.1c-3-3.5-4.5-8.1-4.5-13.6c0-3.5,0.5-7.1,2.5-10.1
		c1.5-3,3.5-6,6.6-8.1c2.5-2.5,6-4,9.6-5.5c3.5-1.5,8.1-2,12.6-2c9.1,0,18.1,2.5,27.7,7.1c-0.5,6.6-2.5,11.1-6.6,14.6
		c-8.6-4-15.6-6-22.2-6c-3,0-5.5,0.5-7.6,2c-1.5,1.5-2.5,3-2.5,5c0,3,2.5,5.5,7.1,7.6l14.6,6c6,2.5,10.6,6,14.1,10.1
		c3,4,4.5,8.6,4.5,14.1c0,4-0.5,7.6-2,10.6c-1.5,3-3.5,6-6,8.1c-2.5,2.5-6,4-10.1,5.5s-9.1,2-14.1,2
		C359.3,322.2,348.7,319.1,339.1,313.1"/>
	<path fill="#FFFFFF" d="M479.7,236.5v52.9c0,10.6-3,18.6-8.6,24.2c-5.5,5.5-13.6,8.6-24.2,8.6c-10.6,0-18.6-3-24.7-8.6
		c-5.5-5.5-8.6-13.6-8.6-24.2v-52.9l1-1h7.1c7.6,0,11.6,4,11.6,12.6v41.3c0,5.5,1,10.1,3,12.6c2,3,5.5,4,10.6,4c5,0,8.6-1.5,10.6-4
		c2-3,3-7.1,3-12.6v-52.9c2.5-0.5,5.5-0.5,9.6-0.5C474.2,236,477.2,236,479.7,236.5"/>
	<path fill="#FFFFFF" d="M551.3,314.6c-2.5,2-6,3.5-10.1,4.5c-4,1-9.1,1.5-14.1,1.5c-2.5,0-6,0-11.1,0c-4.5,0-10.6,0-18.1-0.5l-1-1
		V237l1-1c4.5,0,9.6-0.5,14.6-0.5c5,0,10.6,0,16.1,0c7.1,0,12.6,1,17.1,3.5c4.5,2,8.6,5,11.1,9.1c3,4,4.5,8.6,6,13.6
		c1,5,1.5,10.6,1.5,16.6c0,8.1-1,15.1-3,21.2C560.4,305.5,556.8,310.6,551.3,314.6 M529.1,305.5c10.6,0,16.1-9.1,16.1-27.2
		s-5.5-27.2-16.1-27.2h-7.1c-2,0-3.5,0-5,0V306c1.5,0,3,0,5,0L529.1,305.5L529.1,305.5z"/>
	<path fill="#FFFFFF" d="M598.2,302.5c-2,0-4,0-5,0l-5,17.6c-2,0.5-4.5,0.5-8.1,0.5c-4,0-7.1-0.5-9.6-1.5l-0.5-1l26.7-82.2
		c3-0.5,7.1-0.5,11.1-0.5c5,0,8.6,0.5,11.6,1l26.2,82.2c-3,1.5-6,2.5-9.6,2.5c-4,0-7.1-0.5-9.1-2c-1.5-1.5-3-4.5-4.5-8.6l-2.5-8.1
		c-1,0-2.5,0-4.5,0H598.2z M597.7,287.4h5h9.1c0.5,0,1,0,2,0c1,0,2,0,2.5,0l-2-7.6c-2-7.1-4-15.1-6.6-25.2h-0.5
		c-0.5,3.5-2.5,11.1-6,23.2L597.7,287.4z"/>
	<path fill="#FFFFFF" d="M653.1,320.1l6.6-83.2c3.5-0.5,8.1-1,12.6-1c5,0,9.1,0.5,13.1,1l7.1,29.7c3,13.6,4.5,21.2,4.5,22.2h1
		c0.5-2,2-9.6,4.5-22.2l7.6-29.7c3.5-0.5,8.1-1,12.6-1c5,0,9.1,0.5,13.1,1l6.6,83.2c-2.5,0.5-5.5,1-9.6,1c-3.5,0-6.6,0-9.1-0.5
		l-2-34.3c-0.5-13.6-1-23.2-1-28.2h-0.5L708,308c-3,0.5-6,0.5-10.1,0.5s-7.1,0-10.1-0.5l-12.1-49.9h-1c0,7.1-0.5,16.6-1,28.2
		l-2,34.3c-2.5,0.5-5.5,0.5-9.1,0.5C659.2,321.1,655.6,320.6,653.1,320.1"/>
	<path fill="#FFFFFF" d="M777.1,295.4v8.6l0,0c3.5,0,6.6-0.5,9.1-0.5h28.2c0,3,0,5.5-0.5,7.1c-1,6-5,9.6-12.6,9.6h-32.8
		c-3.5,0-6-1-8.1-3c-2-2-3-5-3-8.6v-71.1l1-1h52.9c0.5,2.5,0.5,5,0.5,7.6c0,2.5-0.5,5.5-1.5,8.6h-33.3v8.6v8.6c2,0,5,0,8.1,0h18.6
		c0.5,2.5,1,5,1,8.1s-0.5,5.5-1,8.1h-26.7V295.4L777.1,295.4z"/>
	<path fill="#FFFFFF" d="M888,262.2c0,2.5-0.5,5-1,7.6c-1,2.5-2,4.5-3,6.6c-1.5,2-3,3.5-5,5c-2,1.5-3.5,2.5-5.5,3
		c4,1.5,7.6,5.5,9.6,11.1l3.5,10.6c1.5,4,3.5,7.1,6,9.1c-1,1.5-3,3-5.5,4c-2.5,1-5,1.5-8.1,1.5c-3,0-5-1-7.1-2.5
		c-1.5-1.5-3-4.5-4.5-8.6l-4.5-12.6c-1-2.5-2-4.5-3.5-5.5c-1.5-1.5-3.5-2-6.6-2h-5v30.7c-2.5,0.5-6,0.5-9.6,0.5c-4,0-7.1,0-9.6-0.5
		V237l1-1c7.1,0,13.1-0.5,18.1-0.5c5,0,8.6,0,11.6,0c4.5,0,8.6,0.5,12.1,1.5c3.5,1,6.6,2.5,9.6,5c2.5,2,4.5,5,6,8.6
		C887.5,254.1,888,258.1,888,262.2 M847.7,250.6v24.2c3.5,0,7.1,0,9.6,0c2.5,0,4.5-0.5,6-1.5c1.5-1,3-2,3.5-3.5c1-1.5,1-4,1-6.6
		c0-8.1-4-12.1-11.6-12.1h-5C849.7,250.6,848.7,250.6,847.7,250.6"/>
	<path fill="#FFFFFF" d="M903.6,320.1v-83.7c2.5-0.5,6-0.5,9.6-0.5c4,0,7.6,0,10.1,0.5v83.7c-2.5,0.5-6,0.5-10.1,0.5
		C909.1,321.1,906.1,320.6,903.6,320.1"/>
	<path fill="#FFFFFF" d="M1007.9,315.6c-3,4-7.1,6-13.1,6c-3.5,0-6-1-7.6-2.5c-1.5-1.5-3-4.5-4.5-8.6l-4.5-14.6
		c-1-4-2.5-6.6-4.5-8.1c-1.5-1.5-4-2.5-7.1-2.5c-1,0-2.5,0-5.5,0v34.8c-2.5,0.5-5.5,0.5-9.6,0.5c-4,0-7.1,0-9.6-0.5v-83.7
		c2.5-0.5,5.5-0.5,9.6-0.5c4,0,7.1,0,9.6,0.5v32.3h3c1.5,0,2.5-0.5,3-1c0.5-0.5,1.5-1.5,2.5-3.5l11.6-21.7c1-2.5,2.5-4.5,4-5.5
		c1.5-1,3.5-1.5,6.6-1.5c3,0,7.1,0,11.6,0.5l1,1.5l-15.1,28.2c-2,3.5-4,6.6-7.1,9.1c4,1,6.6,2.5,8.6,4.5c2,2.5,3.5,5.5,5,9.1l5,15.1
		c0.5,2,1,3,1.5,4c0.5,1,1,2.5,2.5,4.5C1005.9,313.6,1006.9,314.6,1007.9,315.6"/>
	<path fill="#FFFFFF" d="M315.4,412.9h-6.6h-15.1h-6.6l-6,18.1c-1,0.5-3,0.5-5,0.5c-2,0-4-0.5-6-1l-0.5-0.5l24.7-74.1
		c1.5-0.5,3.5-0.5,6.6-0.5c3,0,5,0,6.6,0.5l24.7,74.1c-1.5,1-3.5,1.5-6,1.5c-2.5,0-4-0.5-5-1.5c-1-1-2-2.5-2.5-5L315.4,412.9z
		 M290.2,403.3h5.5h11.1c3,0,5,0,5.5,0l-5-16.1c-2.5-8.1-4.5-14.6-6-19.7h-0.5c-1,4-2.5,9.6-4,16.1L290.2,403.3z"/>
	<path fill="#FFFFFF" d="M343.2,355.9l23.7-0.5c7.6,0,13.6,2,18.1,6c4.5,4,6.6,9.6,6.6,16.6c0,5-1.5,9.1-4,12.6
		c-2.5,3.5-6,6-10.1,7.1c3.5,1,6,4.5,7.6,9.1l5,13.1c1.5,4,3,6.6,5,8.1c-1.5,2.5-4,3.5-8.1,3.5c-2,0-3.5-0.5-4.5-1.5c-1-1-2-3-3-5.5
		l-5.5-14.6c-1-3-2.5-5-4-6.6c-1.5-1.5-4-2.5-7.1-2.5h-9.1V431c-1.5,0.5-3.5,0.5-6,0.5c-2.5,0-4,0-5.5-0.5v-74.1L343.2,355.9z
		 M354.2,364.5v26.7c5.5,0,9.6,0,12.1,0c5,0,8.6-1,10.6-3.5c2-2.5,3-5.5,3-9.6c0-9.1-4.5-13.1-13.6-13.1
		C360.8,365,356.8,365,354.2,364.5"/>
	<path fill="#FFFFFF" d="M432.4,391.7h17.1c5.5,0,8.6,2.5,8.6,7.6V428c-8.1,3-17.1,4.5-27.2,4.5c-5.5,0-10.1-1-14.6-3
		c-4-2-7.6-5-9.6-8.6c-4.5-7.1-7.1-16.1-7.1-26.7c0-6.6,1-12.6,2.5-18.1c2-5,4.5-9.1,7.6-12.1c6.6-6,13.6-9.1,22.2-9.1
		c10.1,0,18.6,2.5,25.7,8.1c-0.5,3.5-2.5,6.6-5.5,8.6c-6-4.5-12.6-7.1-20.2-7.1c-6,0-11.1,2.5-14.6,7.1c-3.5,4.5-5.5,12.1-5.5,22.2
		c0,19.2,7.1,28.7,21.2,28.7c5,0,10.1-0.5,14.1-2v-12.1c0-3,0-5.5,0-7.1h-9.6c-3.5,0-5.5-1.5-5.5-5
		C431.4,394.7,431.9,393.2,432.4,391.7"/>
	<path fill="#FFFFFF" d="M483.3,415.9v5.5c2,0,4.5-0.5,7.1-0.5h28.2c0,2,0,3.5-0.5,4.5c-0.5,3.5-3,5.5-7.6,5.5h-32.8
		c-2,0-3.5-0.5-5-2c-1-1.5-2-3-2-5.5v-67l1-0.5H516c0,1,0.5,2.5,0.5,4.5c0,2-0.5,3.5-1,5h-32.8v7.1v15.6h6.6H510
		c0.5,1.5,0.5,3,0.5,5c0,2,0,3.5-0.5,5h-20.7c-3,0-5,0-6.6,0v17.6H483.3z"/>
	<path fill="#FFFFFF" d="M585.1,355.4l0.5,0.5v74.6c-2,0.5-4.5,0.5-7.1,0.5c-2.5,0-5,0-7.1-0.5l-23.2-45.9c-2.5-5-4.5-10.1-7.1-15.1
		h-0.5c0.5,11.6,1,20.2,1,26.7v34.3c-1.5,0.5-3.5,0.5-5.5,0.5s-3.5,0-5.5-0.5v-75.1c2-0.5,4.5-0.5,7.1-0.5c2.5,0,5,0,7.1,0.5
		l23.2,45.9c1,2,2.5,5,4,9.1c1.5,3.5,2.5,6,3,7.1h0.5c-0.5-9.6-1-18.6-1-27.7v-27.2c0-2.5,0.5-4.5,1.5-5.5c1-1,2.5-1.5,5-1.5
		L585.1,355.4L585.1,355.4z"/>
	<path fill="#FFFFFF" d="M632.4,366h-6.6v65c-1.5,0.5-3.5,0.5-6,0.5c-2,0-4,0-6-0.5v-57V366l0,0h-6h-13.1c-0.5-1.5-0.5-3-0.5-5
		c0-1.5,0-3.5,0.5-5H645c0.5,2,0.5,3.5,0.5,5c0,3-2,5-6.6,5H632.4L632.4,366z"/>
	<path fill="#FFFFFF" d="M654.6,431v-75.1c1.5-0.5,3.5-0.5,5.5-0.5c2.5,0,4.5,0,6,0.5V431c-1.5,0.5-3.5,0.5-6,0.5
		C658.2,431.5,656.1,431.5,654.6,431"/>
	<path fill="#FFFFFF" d="M737.8,355.4l0.5,0.5v74.6c-2,0.5-4.5,0.5-7.1,0.5c-2.5,0-5,0-7.1-0.5L701,384.6c-2.5-5-4.5-10.1-7.1-15.1
		h-0.5c0.5,11.6,1,20.2,1,26.7v34.3c-1.5,0.5-3.5,0.5-5.5,0.5c-2,0-3.5,0-5.5-0.5v-75.1c2-0.5,4.5-0.5,7.1-0.5c2.5,0,5,0,7.1,0.5
		l23.2,45.9c1,2,2.5,5,4,9.1c1.5,3.5,2.5,6,3,7.1h0.5c-0.5-9.6-1-18.6-1-27.7v-27.2c0-2.5,0.5-4.5,1.5-5.5c1-1,2.5-1.5,5-1.5
		L737.8,355.4L737.8,355.4z"/>
	<path fill="#FFFFFF" d="M792.7,412.9h-6.6H771h-6.6l-6,18.1c-1,0.5-3,0.5-5,0.5s-4-0.5-6-1l-0.5-0.5l24.7-74.1
		c1.5-0.5,3.5-0.5,6.6-0.5s5,0,6.6,0.5l24.7,74.1c-1.5,1-3.5,1.5-6,1.5c-2.5,0-4-0.5-5-1.5c-1-1-2-2.5-2.5-5L792.7,412.9z
		 M767.5,403.3h5.5h11.1c3,0,5,0,5.5,0l-5-16.1c-2.5-8.1-4.5-14.6-6-19.7h-0.5c-1,4-2.5,9.6-4,16.1L767.5,403.3z"/>
</g>
</svg>
