<svg version="1.2" xmlns="http://www.w3.org/2000/svg" viewBox="0 0 394 80" width="394" height="80">
	<title>Nextjs-logo-svg</title>
	<style>
		.s0 { fill: #ffffff } 
	</style>
	<path id="Layer" class="s0" d="m261.9 0h68.6v12.7h-27.2v66.6h-13.6v-66.6h-27.8z"/>
	<path id="Layer" class="s0" d="m149.1 0v12.7h-55.1v20.4h44.3v12.6h-44.3v21h55.1v12.6h-68.7v-66.6-12.7z"/>
	<path id="Layer" class="s0" d="m183.3 0.1h-17.8l63.8 79.3h17.9l-31.9-39.7 31.8-39.6-17.8 0.1-22.9 28.5z"/>
	<path id="Layer" class="s0" d="m201.6 56.7l-8.9-11.1-27.2 33.8h17.8z"/>
	<path id="Layer" fill-rule="evenodd" class="s0" d="m80.9 79.3l-63.9-79.3h-17v79.3h13.6v-62.3l50.2 62.3z"/>
	<path id="Layer" class="s0" d="m333.6 78.9q-1.5 0-2.5-1.1-1.1-1-1.1-2.5 0-1.4 1.1-2.5 1-1 2.5-1 1.4 0 2.5 1 1.1 1.1 1.1 2.5 0 1-0.5 1.8-0.5 0.8-1.3 1.3-0.8 0.5-1.8 0.5z"/>
	<path id="Layer" class="s0" d="m356.8 45.4h6.1v23.3q0 3.2-1.4 5.5-1.4 2.3-3.8 3.5-2.4 1.2-5.7 1.3-2.9 0-5.3-1.1-2.3-1-3.7-3.1-1.4-2-1.4-5.1h6.1q0 1.4 0.6 2.3 0.6 1 1.6 1.5 1 0.5 2.4 0.5 1.4 0 2.4-0.6 1.1-0.6 1.6-1.8 0.5-1.2 0.5-2.9z"/>
	<path id="Layer" class="s0" d="m387.7 54.5q-0.2-2.1-1.9-3.3-1.7-1.1-4.4-1.1-1.9 0-3.3 0.5-1.3 0.6-2.1 1.6-0.7 0.9-0.7 2.2 0 1 0.5 1.8 0.5 0.7 1.3 1.2 0.8 0.6 1.8 0.9 1.1 0.4 2.1 0.6l3.1 0.8q1.9 0.4 3.7 1.2 1.8 0.7 3.2 1.8 1.4 1.2 2.2 2.8 0.8 1.6 0.8 3.7 0 2.9-1.5 5.1-1.5 2.2-4.4 3.5-2.8 1.2-6.8 1.2-3.9 0-6.8-1.2-2.9-1.2-4.5-3.5-1.6-2.3-1.7-5.6h5.9q0.2 1.8 1.1 2.9 1 1.2 2.5 1.7 1.5 0.6 3.4 0.6 2 0 3.5-0.6 1.5-0.6 2.4-1.7 0.8-1 0.8-2.4 0-1.3-0.7-2.2-0.8-0.8-2.1-1.4-1.4-0.6-3.2-1l-3.8-1q-4.2-1-6.6-3.2-2.4-2.1-2.4-5.7 0-2.9 1.7-5.1 1.6-2.2 4.3-3.4 2.8-1.2 6.4-1.2 3.5 0 6.2 1.2 2.7 1.2 4.3 3.4 1.5 2.1 1.5 4.9z"/>
</svg>