<svg xmlns="http://www.w3.org/2000/svg" width="394" height="80" version="1.2"><style>.s0{fill:#fff}</style><path id="Layer" d="M261.9 0h68.6v12.7h-27.2v66.6h-13.6V12.7h-27.8z" class="s0"/><path d="M149.1 0v12.7H94v20.4h44.3v12.6H94v21h55.1v12.6H80.4V0zM183.3.1h-17.8l63.8 79.3h17.9l-31.9-39.7L247.1.1l-17.8.1-22.9 28.5zM201.6 56.7l-8.9-11.1-27.2 33.8h17.8z" class="s0"/><path fill-rule="evenodd" d="M80.9 79.3 17 0H0v79.3h13.6V17l50.2 62.3z" class="s0"/><path d="M333.6 78.9q-1.5 0-2.5-1.1-1.1-1-1.1-2.5 0-1.4 1.1-2.5 1-1 2.5-1 1.4 0 2.5 1 1.1 1.1 1.1 2.5 0 1-.5 1.8t-1.3 1.3q-.8.5-1.8.5zM356.8 45.4h6.1v23.3q0 3.2-1.4 5.5t-3.8 3.5q-2.4 1.2-5.7 1.3-2.9 0-5.3-1.1-2.3-1-3.7-3.1-1.4-2-1.4-5.1h6.1q0 1.4.6 2.3.6 1 1.6 1.5t2.4.5q1.4 0 2.4-.6 1.1-.6 1.6-1.8.5-1.2.5-2.9zM387.7 54.5q-.2-2.1-1.9-3.3-1.7-1.1-4.4-1.1-1.9 0-3.3.5-1.3.6-2.1 1.6-.7.9-.7 2.2 0 1 .5 1.8.5.7 1.3 1.2.8.6 1.8.9 1.1.4 2.1.6l3.1.8q1.9.4 3.7 1.2 1.8.7 3.2 1.8 1.4 1.2 2.2 2.8.8 1.6.8 3.7 0 2.9-1.5 5.1-1.5 2.2-4.4 3.5-2.8 1.2-6.8 1.2-3.9 0-6.8-1.2t-4.5-3.5q-1.6-2.3-1.7-5.6h5.9q.2 1.8 1.1 2.9 1 1.2 2.5 1.7 1.5.6 3.4.6 2 0 3.5-.6t2.4-1.7q.8-1 .8-2.4 0-1.3-.7-2.2-.8-.8-2.1-1.4-1.4-.6-3.2-1l-3.8-1q-4.2-1-6.6-3.2-2.4-2.1-2.4-5.7 0-2.9 1.7-5.1 1.6-2.2 4.3-3.4 2.8-1.2 6.4-1.2 3.5 0 6.2 1.2t4.3 3.4q1.5 2.1 1.5 4.9z" class="s0"/></svg>