<svg xmlns="http://www.w3.org/2000/svg" width="64" height="64" fill="none"><g clip-path="url(#a)"><path fill="#6C4796" d="M32 64c17.673 0 32-14.327 32-32C64 14.327 49.673 0 32 0 14.327 0 0 14.327 0 32c0 17.673 14.327 32 32 32Z"/><path fill="#fff" d="m30.037 41.828-3.679 3.666a3.915 3.915 0 0 1-5.525 0l-3.679-3.679c-1.508-1.508-1.508-3.99 0-5.512l3.68-3.679 9.203 9.204Zm17.459-10.127-16.55-16.536a1.261 1.261 0 0 0-1.104-.377 1.31 1.31 0 0 0-.962.676l-7.449 14.08 11.713 11.713 14.04-7.489c.364-.181.611-.546.676-.949a1.317 1.317 0 0 0-.364-1.118ZM19 47.327l-3.68-3.679a6.2 6.2 0 0 1-1.221-1.716 5.178 5.178 0 0 0 1.222 5.395 5.166 5.166 0 0 0 5.408 1.236 5.95 5.95 0 0 1-1.73-1.236Zm15.17-1.378-2.287-2.287-3.692 3.678a6.08 6.08 0 0 1-1.014.82l2.392 2.391c.611.612 1.43.95 2.3.95.872 0 1.691-.338 2.302-.95a3.273 3.273 0 0 0 0-4.602Zm4.33-29.548v-2.6a1.3 1.3 0 1 0-2.6 0v2.6a1.3 1.3 0 1 0 2.6 0Zm11.7 9.1a1.3 1.3 0 0 0-1.3-1.3h-2.6a1.3 1.3 0 1 0 0 2.6h2.6a1.3 1.3 0 0 0 1.3-1.3Zm-6.881-4.282 2.6-2.6a1.3 1.3 0 1 0-1.838-1.838l-2.6 2.6a1.3 1.3 0 1 0 1.838 1.838Z"/></g><defs><clipPath id="a"><path fill="#fff" d="M0 0h64v64H0z"/></clipPath></defs></svg>