<svg xmlns="http://www.w3.org/2000/svg" width="712" height="403" viewBox="0 0 712 403" version="1.1"><path d="" stroke="none" fill="#080404" fill-rule="evenodd"/><path d="M 16 201 L 16 391 35 391 L 54 391 54 201 L 54 11 35 11 L 16 11 16 201 M 105 201 L 105 391 124 391 L 143 391 143 201 L 143 11 124 11 L 105 11 105 201 M 239.500 93.184 L 153.500 175.215 153.233 201.708 L 152.967 228.202 162.733 219.015 L 172.500 209.828 179 216.870 C 182.575 220.743, 221.275 261.500, 265 307.442 L 344.500 390.974 370.850 390.987 L 397.201 391 385.850 379.152 C 309.957 299.929, 200.500 184.808, 200.500 184.210 C 200.500 183.790, 237.850 147.738, 283.500 104.096 C 329.150 60.453, 369.646 21.653, 373.491 17.873 L 380.483 11 352.991 11.077 L 325.500 11.153 239.500 93.184 M 494 189.186 C 459.075 287.171, 428.607 372.665, 426.294 379.171 L 422.088 391 442.294 390.978 L 462.500 390.956 519.500 231.424 C 550.850 143.681, 576.902 70.401, 577.394 68.578 C 578.173 65.691, 577.024 61.761, 568.492 38.132 C 563.105 23.209, 558.427 11.007, 558.098 11.015 C 557.769 11.023, 528.925 91.200, 494 189.186 M 582.267 83.699 C 581.736 85.240, 577.363 97.819, 572.550 111.653 L 563.797 136.806 587.899 204.443 C 601.154 241.644, 612 272.513, 612 273.040 C 612 273.640, 593.689 274, 563.179 274 L 514.358 274 507.796 292.750 L 501.234 311.500 563.743 312 L 626.253 312.500 640.342 351.750 L 654.432 391 674.562 391 L 694.693 391 639.581 236.568 C 609.269 151.630, 584.190 81.857, 583.850 81.517 C 583.510 81.176, 582.797 82.158, 582.267 83.699" stroke="none" fill="#ffffff" fill-rule="evenodd"/></svg>