<svg xmlns="http://www.w3.org/2000/svg" width="712" height="403"><path d="M16 201v190h38V11H16v190m89 0v190h38V11h-38v190M239.5 93.184l-86 82.031-.267 26.493-.266 26.494 9.766-9.187 9.767-9.187 6.5 7.042c3.575 3.873 42.275 44.63 86 90.572l79.5 83.532 26.35.013 26.351.013-11.351-11.848C309.957 299.929 200.5 184.808 200.5 184.21c0-.42 37.35-36.472 83-80.114 45.65-43.643 86.146-82.443 89.991-86.223L380.483 11l-27.492.077-27.491.076-86 82.031M494 189.186c-34.925 97.985-65.393 183.479-67.706 189.985L422.088 391l20.206-.022 20.206-.022 57-159.532c31.35-87.743 57.402-161.023 57.894-162.846.779-2.887-.37-6.817-8.902-30.446-5.387-14.923-10.065-27.125-10.394-27.117-.329.008-29.173 80.185-64.098 178.171m88.267-105.487c-.531 1.541-4.904 14.12-9.717 27.954l-8.753 25.153 24.102 67.637C601.154 241.644 612 272.513 612 273.04c0 .6-18.311.96-48.821.96h-48.821l-6.562 18.75-6.562 18.75 62.509.5 62.51.5 14.089 39.25 14.09 39.25H694.693l-55.112-154.432C609.269 151.63 584.19 81.857 583.85 81.517c-.34-.341-1.053.641-1.583 2.182" fill="#fff" fill-rule="evenodd"/></svg>