<svg xmlns="http://www.w3.org/2000/svg" width="512" height="512" style="enable-background:new 0 0 512 512" xml:space="preserve"><circle r="256" cx="256" cy="256" fill="#fff"/><path d="M256 76.8c-62.976 0-115.5 50.729-115.5 115.5 0 24.641 7.405 46.614 21.615 67.204l85.046 132.706c4.126 6.451 13.56 6.439 17.678 0l85.415-133.157c13.904-19.657 21.246-42.738 21.246-66.753 0-63.687-51.813-115.5-115.5-115.5zm0 168c-28.947 0-52.5-23.553-52.5-52.5s23.553-52.5 52.5-52.5 52.5 23.553 52.5 52.5-23.553 52.5-52.5 52.5z" fill="#6c4796" data-original="#000000" xmlns="http://www.w3.org/2000/svg"/><path d="m338.085 318.087-52.872 82.66c-13.686 21.338-44.817 21.268-58.437.02l-52.957-82.659C127.224 328.881 98.5 348.616 98.5 372.2c0 40.923 81.15 63 157.5 63s157.5-22.077 157.5-63c0-23.6-28.764-43.346-75.415-54.113z" fill="#6c4796" data-original="#000000" xmlns="http://www.w3.org/2000/svg"/></svg>