<svg xmlns="http://www.w3.org/2000/svg" width="512" height="512" style="enable-background:new 0 0 512 512" xml:space="preserve"><circle r="256" cx="256" cy="256" fill="#fff"/><g xmlns="http://www.w3.org/2000/svg" fill="#6c4796"><path d="M319.7 204.2c-63.687 0-115.5 51.813-115.5 115.5s51.813 115.5 115.5 115.5 115.5-51.813 115.5-115.5-51.813-115.5-115.5-115.5zm0 105c17.37 0 31.5 14.13 31.5 31.5 0 13.671-8.805 25.217-21 29.566V393.2h-21v-22.934c-12.195-4.35-21-15.895-21-29.566h21c0 5.793 4.707 10.5 10.5 10.5s10.5-4.707 10.5-10.5-4.707-10.5-10.5-10.5c-17.37 0-31.5-14.13-31.5-31.5 0-13.671 8.805-25.217 21-29.566V246.2h21v22.934c12.195 4.35 21 15.895 21 29.566h-21c0-5.793-4.707-10.5-10.5-10.5s-10.5 4.707-10.5 10.5 4.707 10.5 10.5 10.5zM193.7 204.2c64.764 0 115.5-27.675 115.5-63s-50.736-64.4-115.5-64.4-116.9 29.075-116.9 64.4 52.136 63 116.9 63zM76.8 313.091V330.2c0 35.325 52.136 63 116.9 63 3.674 0 7.233-.338 10.85-.515a135.613 135.613 0 0 1-17.598-41.738c-46.833-1.293-87.499-15.684-110.152-37.856zM183.705 329.665c-.241-3.302-.505-6.602-.505-9.965 0-10.946 1.434-21.54 3.88-31.747-46.892-1.27-87.606-15.67-110.28-37.862V267.2c0 33.45 47.083 59.74 106.905 62.465zM193.7 267.2l.032-.001a136.97 136.97 0 0 1 29.493-43.972c-9.483 1.199-19.283 1.973-29.525 1.973-49.852 0-93.152-14.866-116.9-38.109V204.2c0 35.325 52.136 63 116.9 63z" data-original="#000000"/></g></svg>