<svg width="79" height="79" fill="none" xmlns="http://www.w3.org/2000/svg"><g clip-path="url(#a)"><path d="M47.51 70.13c17.07-4.573 27.2-22.12 22.627-39.191C65.562 13.868 48.016 3.737 30.945 8.312 13.874 12.886 3.743 30.432 8.317 47.503c4.575 17.071 22.121 27.202 39.192 22.628Z" fill="#fff"/><path d="m48 37.704.667-1.154v-.002l2.352-4.073v-.001l2.352-4.073 1.292-2.238a3.084 3.084 0 0 0 .31-2.355 3.084 3.084 0 0 0-1.446-1.886l-6.47-3.735a3.084 3.084 0 0 0-2.356-.31 3.084 3.084 0 0 0-1.885 1.446l-6.663 11.541-7.834-4.523A8.402 8.402 0 0 0 24 25.217l-6.927.098a1.125 1.125 0 0 0-.966 1.674l3.378 6.048a8.403 8.403 0 0 0 3.134 3.178l7.833 4.523-6.663 11.54a3.085 3.085 0 0 0-.31 2.356c.214.801.728 1.47 1.446 1.886l6.47 3.735a3.084 3.084 0 0 0 2.356.31 3.084 3.084 0 0 0 1.885-1.446l3.643-6.309.001-.003.002-.002 3.018-5.227 10.609 6.125a5.683 5.683 0 0 0 4.325.567 5.683 5.683 0 0 0 3.462-2.653 5.707 5.707 0 0 0-2.086-7.787L48 37.704ZM21.45 31.94l-2.46-4.402 5.042-.071a6.151 6.151 0 0 1 3.162.823l1.087.627-3.451 5.977-1.087-.627a6.153 6.153 0 0 1-2.293-2.327Zm5.328 4.079 3.451-5.977 4.799 2.77-3.451 5.977-4.799-2.77Zm6.391 22.373a.85.85 0 0 1-.649-.086l-6.47-3.735a.848.848 0 0 1-.398-.519.85.85 0 0 1 .085-.649l19.027-32.955a.85.85 0 0 1 .52-.398.85.85 0 0 1 .648.085l6.47 3.736c.197.114.339.298.398.519a.85.85 0 0 1-.085.648l-.73 1.264-4.203-2.427a1.125 1.125 0 0 0-1.125 1.948l4.203 2.427-1.227 2.125-2.166-1.25a1.125 1.125 0 1 0-1.125 1.948l2.166 1.251-1.227 2.125-4.203-2.426a1.125 1.125 0 1 0-1.125 1.948l4.203 2.427-1.227 2.125-2.166-1.25a1.125 1.125 0 0 0-1.125 1.948l2.166 1.25-1.206 2.09-4.203-2.427a1.125 1.125 0 1 0-1.125 1.948l4.203 2.427-1.227 2.125-2.166-1.25a1.125 1.125 0 0 0-1.125 1.948l2.166 1.25-1.227 2.126-4.203-2.426a1.125 1.125 0 0 0-1.125 1.948l4.203 2.427-1.227 2.125-2.166-1.25a1.125 1.125 0 0 0-1.125 1.948l2.166 1.25-.73 1.264a.85.85 0 0 1-.518.398Zm10.812-13.727a.277.277 0 0 0 .003-.005l.004-.006 2.326-4.03.001-.002.001-.001.56-.968 5.838 3.37L49.263 49l-5.839-3.37.557-.965Zm14.767 5.827a3.455 3.455 0 0 1-4.714 1.263l-2.822-1.63 3.45-5.977 2.823 1.63a3.455 3.455 0 0 1 1.263 4.714Z" fill="#6C4796"/></g><defs><clipPath id="a"><path fill="#fff" transform="rotate(-15 63.039 8.163)" d="M0 0h64v64H0z"/></clipPath></defs></svg>