<svg width="80" height="80" fill="none" xmlns="http://www.w3.org/2000/svg"><g clip-path="url(#a)"><path d="M31.537 70.968c17.07 4.574 34.617-5.557 39.191-22.628 4.575-17.07-5.556-34.617-22.627-39.192-17.07-4.574-34.618 5.557-39.192 22.628-4.574 17.07 5.557 34.617 22.628 39.192Z" fill="#fff"/><g fill="#6C4796"><path d="M33.715 47.189a.63.63 0 0 1-.357-.253L30.3 42.5a.634.634 0 0 1 .25-.932l4.866-2.313a.634.634 0 1 1 .544 1.145l-4.194 1.993 2.636 3.823a.634.634 0 0 1-.687.973ZM41.539 49.285a.634.634 0 0 1-.108-1.185l4.193-1.993-2.635-3.823a.634.634 0 0 1 1.043-.72L47.091 46a.634.634 0 0 1-.25.932l-4.867 2.313a.631.631 0 0 1-.435.04ZM35.546 50.392a.634.634 0 0 1-.402-.9l5.61-11.064a.634.634 0 0 1 1.132.574l-5.612 11.064a.634.634 0 0 1-.728.326Z"/><path d="m49.672 61.023-28.868-7.735a4.261 4.261 0 0 1-3.01-5.213l6.565-24.502a4.262 4.262 0 0 1 5.213-3.01l28.869 7.735a4.262 4.262 0 0 1 3.01 5.214l-6.566 24.502a4.261 4.261 0 0 1-5.213 3.01ZM29.244 21.788a2.992 2.992 0 0 0-3.66 2.113l-6.565 24.502a2.992 2.992 0 0 0 2.113 3.66L50 59.8a2.992 2.992 0 0 0 3.66-2.114l6.566-24.502a2.992 2.992 0 0 0-2.113-3.66l-28.869-7.735Z"/><path d="m59.311 39.042-35.867-9.61a.634.634 0 1 1 .329-1.225l35.866 9.61a.634.634 0 1 1-.328 1.225ZM34.08 29.14a2.01 2.01 0 0 1-1.42-2.457 2.009 2.009 0 0 1 2.458-1.419 2.009 2.009 0 0 1 1.418 2.457 2.009 2.009 0 0 1-2.457 1.42Zm.71-2.65a.74.74 0 1 0-.381 1.428.74.74 0 0 0 .38-1.429ZM28.13 27.526a2.009 2.009 0 0 1-1.419-2.457 2.009 2.009 0 0 1 2.457-1.419 2.009 2.009 0 0 1 1.419 2.457 2.009 2.009 0 0 1-2.457 1.419Zm.71-2.651a.74.74 0 0 0-.382 1.426.74.74 0 0 0 .382-1.426ZM40.028 30.754a2.009 2.009 0 0 1-1.418-2.457 2.009 2.009 0 0 1 2.456-1.419 2.009 2.009 0 0 1 1.42 2.457 2.009 2.009 0 0 1-2.458 1.419Zm.71-2.651a.739.739 0 1 0-.38 1.428.739.739 0 0 0 .38-1.428Z"/></g></g><defs><clipPath id="a"><path fill="#fff" transform="rotate(15 5.306 65.724)" d="M0 0h64v64H0z"/></clipPath></defs></svg>