<svg width="64" height="64" fill="none" xmlns="http://www.w3.org/2000/svg"><g clip-path="url(#a)"><path d="M32 64c17.673 0 32-14.327 32-32C64 14.327 49.673 0 32 0 14.327 0 0 14.327 0 32c0 17.673 14.327 32 32 32Z" fill="#fff"/><g fill="#6C4796"><path d="M45.091 16H18.909A2.912 2.912 0 0 0 16 18.91v4.363a2.912 2.912 0 0 0 2.91 2.909H45.09a2.912 2.912 0 0 0 2.91-2.91V18.91A2.912 2.912 0 0 0 45.09 16Zm-23.273 6.546a.727.727 0 1 1-1.454 0v-2.91a.727.727 0 1 1 1.454 0v2.91Zm2.91 0a.727.727 0 1 1-1.455 0v-2.91a.727.727 0 1 1 1.454 0v2.91Zm2.908 0a.727.727 0 1 1-1.454 0v-2.91a.727.727 0 1 1 1.454 0v2.91Zm10.182 0a1.456 1.456 0 0 1-1.454-1.455c0-.802.652-1.455 1.454-1.455.802 0 1.455.653 1.455 1.455s-.653 1.454-1.455 1.454Zm4.364 0a1.456 1.456 0 0 1-1.455-1.455c0-.802.653-1.455 1.455-1.455s1.454.653 1.454 1.455-.652 1.454-1.454 1.454ZM45.091 26.91H18.909A2.912 2.912 0 0 0 16 29.817v4.364a2.912 2.912 0 0 0 2.91 2.91H45.09a2.912 2.912 0 0 0 2.91-2.91v-4.364a2.912 2.912 0 0 0-2.91-2.909Zm-23.273 6.545a.727.727 0 1 1-1.454 0v-2.91a.727.727 0 1 1 1.454 0v2.91Zm2.91 0a.727.727 0 1 1-1.455 0v-2.91a.727.727 0 1 1 1.454 0v2.91Zm2.908 0a.727.727 0 1 1-1.454 0v-2.91a.727.727 0 1 1 1.454 0v2.91Zm10.182 0A1.456 1.456 0 0 1 36.364 32c0-.802.652-1.454 1.454-1.454.802 0 1.455.652 1.455 1.454 0 .802-.653 1.455-1.455 1.455Zm4.364 0A1.456 1.456 0 0 1 40.727 32c0-.802.653-1.454 1.455-1.454s1.454.652 1.454 1.454c0 .802-.652 1.455-1.454 1.455ZM45.091 37.818H18.909A2.912 2.912 0 0 0 16 40.728v4.363a2.912 2.912 0 0 0 2.91 2.91H45.09a2.912 2.912 0 0 0 2.91-2.91v-4.364a2.912 2.912 0 0 0-2.91-2.909Zm-23.273 6.546a.727.727 0 1 1-1.454 0v-2.91a.727.727 0 1 1 1.454 0v2.91Zm2.91 0a.727.727 0 1 1-1.455 0v-2.91a.727.727 0 1 1 1.454 0v2.91Zm2.908 0a.727.727 0 1 1-1.454 0v-2.91a.727.727 0 1 1 1.454 0v2.91Zm10.182 0a1.456 1.456 0 0 1-1.454-1.455c0-.801.652-1.454 1.454-1.454.802 0 1.455.653 1.455 1.454 0 .802-.653 1.455-1.455 1.455Zm4.364 0a1.456 1.456 0 0 1-1.455-1.455c0-.801.653-1.454 1.455-1.454s1.454.653 1.454 1.454c0 .802-.652 1.455-1.454 1.455Z"/></g></g><defs><clipPath id="a"><path fill="#fff" d="M0 0h64v64H0z"/></clipPath></defs></svg>